<?xml version="1.0" standalone="no"?><!DOCTYPE svg PUBLIC "-//W3C//DTD SVG 1.1//EN" "http://www.w3.org/Graphics/SVG/1.1/DTD/svg11.dtd"><svg t="1570851514339" class="icon" viewBox="0 0 1024 1024" version="1.1" xmlns="http://www.w3.org/2000/svg" p-id="5237" xmlns:xlink="http://www.w3.org/1999/xlink" width="48" height="48"><defs><style type="text/css"></style></defs><path d="M808.746006 87.606267 212.398969 87.606267c-82.198094 0-149.08548 65.993017-149.08548 147.113569l0 546.420951c0 81.120552 66.887386 147.110499 149.08548 147.110499l596.347037 0c82.199117 0 149.086503-65.988924 149.086503-147.110499L957.83251 234.719836C957.833533 153.599284 890.945123 87.606267 808.746006 87.606267zM915.235342 781.140787c0 57.935504-47.77305 105.081267-106.488313 105.081267L212.398969 886.222053c-58.712193 0-106.488313-47.14474-106.488313-105.081267L105.910657 234.719836c0-57.93448 47.77612-105.081267 106.488313-105.081267l596.347037 0c58.716286 0 106.488313 47.146786 106.488313 105.081267L915.234319 781.140787zM350.835925 465.898009c64.581877 0 117.144-51.853995 117.144-115.587552 0-63.736627-52.562123-115.590622-117.144-115.590622-64.577784 0-117.135814 51.852972-117.135814 115.590622C233.700111 414.044014 286.258141 465.898009 350.835925 465.898009zM350.835925 276.751115c41.10007 0 74.54581 33.001625 74.54581 73.558319 0 40.553625-33.446763 73.55525-74.54581 73.55525-41.095977 0-74.541717-33.001625-74.541717-73.55525C276.294209 309.753763 309.739948 276.751115 350.835925 276.751115zM814.990221 366.974999 510.571976 667.357324 382.783545 541.259394 197.342042 724.250078c-8.320503 8.207939-8.320503 21.509896 0 29.717835 4.161786 4.101411 9.609869 6.155187 15.056927 6.155187 5.452175 0 10.900258-2.053776 15.058974-6.155187l155.325601-153.271826L510.571976 726.795041l334.532099-330.102207c8.320503-8.208962 8.320503-21.508873 0-29.717835C836.785619 358.765013 823.30663 358.765013 814.990221 366.974999z" p-id="5238"></path></svg>