<?xml version="1.0" standalone="no"?><!DOCTYPE svg PUBLIC "-//W3C//DTD SVG 1.1//EN" "http://www.w3.org/Graphics/SVG/1.1/DTD/svg11.dtd"><svg t="1570762779859" class="icon" viewBox="0 0 1024 1024" version="1.1" xmlns="http://www.w3.org/2000/svg" p-id="13167" xmlns:xlink="http://www.w3.org/1999/xlink" width="16" height="16"><defs><style type="text/css"></style></defs><path d="M834.56 79.36H322.56c-56.32 0-102.4 46.08-102.4 102.4v73.728h66.56V197.12c0-28.16 23.04-51.2 51.2-51.2h486.4c28.16 0 51.2 23.04 51.2 51.2v486.4c0 28.16-23.04 51.2-51.2 51.2h-71.68v61.44h81.92c56.32 0 102.4-46.08 102.4-102.4v-512c0-56.32-46.08-102.4-102.4-102.4z" p-id="13168"></path><path d="M168.96 232.96h512c56.32 0 102.4 46.08 102.4 102.4v512c0 56.32-46.08 102.4-102.4 102.4H168.96c-56.32 0-102.4-46.08-102.4-102.4v-512c0-56.32 46.08-102.4 102.4-102.4z m15.36 66.56c-28.16 0-51.2 23.04-51.2 51.2v486.4c0 28.16 23.04 51.2 51.2 51.2h486.4c28.16 0 51.2-23.04 51.2-51.2v-486.4c0-28.16-23.04-51.2-51.2-51.2H184.32z" p-id="13169"></path></svg>