<?xml version="1.0" standalone="no"?><!DOCTYPE svg PUBLIC "-//W3C//DTD SVG 1.1//EN" "http://www.w3.org/Graphics/SVG/1.1/DTD/svg11.dtd"><svg t="1571195736372" class="icon" viewBox="0 0 1024 1024" version="1.1" xmlns="http://www.w3.org/2000/svg" p-id="2477" xmlns:xlink="http://www.w3.org/1999/xlink" width="16" height="16"><defs><style type="text/css"></style></defs><path d="M688.704 684l-0.736-0.736-135.744-148.352c-8.192-6.048-14.688-8.448-22.784-8.448a30.944 30.944 0 0 0-21.504 7.744l-138.24 147.84c-3.936 6.56-7.072 12.8-7.072 20.896 0 13.76 12.864 26.304 27.008 26.304 7.2 0 15.616-3.84 22.08-10.016l90.752-96.416v271.68c0 16.48 10.08 26.304 26.976 26.304 13.76 0 27.584-8.128 27.584-26.304v-271.68l90.752 96.416c7.36 7.104 12.928 10.016 19.136 10.016 16.512 0 29.952-11.84 29.952-26.304a25.664 25.664 0 0 0-8.16-18.944z" p-id="2478"></path><path d="M854.592 357.856l-8.832-2.4-3.36-8.32c-51.36-126.912-173.632-208.96-311.456-208.96-137.152 0-263.264 83.968-313.856 208.96l-3.36 8.288-8.768 2.4c-87.264 24.096-150.624 106.336-150.624 195.552 0 113.152 95.488 205.216 212.864 205.216 18.496 0 29.952-13.952 29.952-26.88 0-16.32-11.776-26.88-29.952-26.88-3.2 0-6.4-0.16-9.536-0.32-83.936-0.416-151.872-69.12-151.872-153.888 0-82.816 64.896-150.336 146.24-153.696 37.6-119.68 148.48-206.464 279.616-206.464 131.296 0 242.304 87.008 279.808 206.912 11.68 0.992 22.976 3.328 33.792 6.848h0.32v0.128a153.792 153.792 0 0 1 104.256 163.648 140.832 140.832 0 0 1-0.768 6.016v0.032a145.088 145.088 0 0 1-12.224 40.896 152.544 152.544 0 0 1-133.12 89.408 168.128 168.128 0 0 1-11.392 0.448c-13.376 0-27.616 9.408-27.616 26.88 0 13.568 13.696 26.88 27.616 26.88 117.344 0 212.8-92.032 212.8-205.216 0-90.88-61.888-171.264-150.528-195.52z" p-id="2479"></path></svg>